<svg width="740" height="455" viewBox="0 0 740 455" fill="none" xmlns="http://www.w3.org/2000/svg">
<path d="M232.649 0.887646C297.551 -1.77498 422.701 16.7989 532.356 53.9679C587.181 72.5515 638.096 95.7718 675.66 123.285C713.234 150.807 737.36 182.557 738.808 218.186C740.256 253.834 721.267 286.031 689.816 314.389C658.366 342.745 614.512 367.208 566.384 387.37C470.125 427.696 356.902 450.767 291.987 453.43C227.034 456.095 155.667 450.938 99.8292 427.234C71.9166 415.384 47.9036 398.907 30.5062 376.473C13.1125 354.044 2.31014 325.633 0.857103 289.873C-2.05151 218.29 23.4826 147.363 65.9655 93.6671C108.45 39.9702 167.849 3.54608 232.649 0.887646Z" fill="#BFC5FD" stroke="black"/>
</svg>
