<svg width="335" height="356" viewBox="0 0 335 356" fill="none" xmlns="http://www.w3.org/2000/svg">
<path d="M332.517 231.308C328.604 245.91 318.732 262.314 304.507 278.294C290.288 294.268 271.743 309.791 250.524 322.635C208.078 348.327 155.003 363.259 104.505 349.728C54.0918 336.219 25.7123 289.266 11.9108 238.193C-1.8882 187.131 -1.0602 132.131 6.79276 102.824C14.6591 73.466 28.9485 42.9232 53.8564 23.1033C78.7376 3.30461 114.292 -5.85534 164.842 7.6893C215.357 21.2249 261.217 62.4761 292.489 107.735C308.12 130.357 320.091 153.96 327.17 175.564C334.254 197.182 336.42 216.741 332.517 231.308Z" stroke="black"/>
</svg>
