<svg width="327" height="388" viewBox="0 0 327 388" fill="none" xmlns="http://www.w3.org/2000/svg">
<path d="M107.566 1.4375C121.817 1.43749 142.635 6.44537 165.871 15.8913C189.095 25.3327 214.694 39.191 238.502 56.8536C286.135 92.1919 326.5 142.681 326.5 203.413C326.5 264.158 290.632 310.156 247.534 340.992C204.424 371.836 154.177 387.437 125.616 387.437C96.9972 387.437 65.7342 380.592 41.628 358.603C17.5309 336.623 0.499996 299.432 0.499994 238.561C0.499991 177.658 13.0354 118.323 32.7226 74.2297C42.5665 52.1823 54.1885 33.9683 66.9054 21.2738C79.623 8.57846 93.3986 1.4375 107.566 1.4375Z" stroke="black"/>
</svg>
