<svg width="44" height="43" viewBox="0 0 44 43" fill="none" xmlns="http://www.w3.org/2000/svg">
<path d="M31.2045 1C21.7736 1.90118 4.0587 8.26097 8.64672 26.4906C14.3818 49.2777 37.7042 41.9395 39.9982 35.76C42.2922 29.5804 46.1156 24.1733 39.9982 12.5867C35.1043 3.31733 11.9603 3.83229 1 5.24844" stroke="black" stroke-width="0.6"/>
<path d="M16.7879 23.7879C16.6707 23.905 16.6707 24.095 16.7879 24.2121L18.6971 26.1213C18.8142 26.2385 19.0042 26.2385 19.1213 26.1213C19.2385 26.0042 19.2385 25.8142 19.1213 25.6971L17.4243 24L19.1213 22.3029C19.2385 22.1858 19.2385 21.9958 19.1213 21.8787C19.0042 21.7615 18.8142 21.7615 18.6971 21.8787L16.7879 23.7879ZM36 23.7L17 23.7V24.3L36 24.3V23.7Z" fill="black"/>
</svg>
