<svg width="44" height="43" viewBox="0 0 44 43" fill="none" xmlns="http://www.w3.org/2000/svg">
<path d="M31.2045 1C21.7736 1.90118 4.0587 8.26097 8.64672 26.4906C14.3818 49.2777 37.7042 41.9395 39.9982 35.76C42.2922 29.5804 46.1156 24.1733 39.9982 12.5867C35.1043 3.31733 11.9603 3.83229 1 5.24844" stroke="black" stroke-width="0.6"/>
<path d="M36.2121 24.2121C36.3293 24.095 36.3293 23.905 36.2121 23.7879L34.3029 21.8787C34.1858 21.7615 33.9958 21.7615 33.8787 21.8787C33.7615 21.9958 33.7615 22.1858 33.8787 22.3029L35.5757 24L33.8787 25.6971C33.7615 25.8142 33.7615 26.0042 33.8787 26.1213C33.9958 26.2385 34.1858 26.2385 34.3029 26.1213L36.2121 24.2121ZM17 24.3L36 24.3L36 23.7L17 23.7L17 24.3Z" fill="black"/>
</svg>
