<svg width="1440" height="45" viewBox="0 0 1440 45" fill="none" xmlns="http://www.w3.org/2000/svg">
<path d="M-3 14.5479C20.9386 36.7732 82.7112 67.8885 138.293 14.5479C154.438 4.32435 196.614 -9.98869 236.163 14.5479C249.301 31.5502 288.939 55.3535 342.383 14.5479C355.967 5.65787 391.819 -6.78824 426.558 14.5479C444.039 26.7718 488.152 44.952 524.762 19.882C542.242 8.65824 586.69 -7.05498 624.635 19.882C662.581 46.8189 705.47 31.1057 722.171 19.882C735.31 10.7696 769.469 -1.98763 801.001 19.882C840.417 47.219 872.483 29.8833 884.174 24.8827C893.749 14.7702 921.117 0.612717 953.985 24.8827C986.854 49.1526 1017.56 34.9951 1028.81 24.8827C1040.83 16.5482 1071.3 4.87996 1096.95 24.8827C1129.02 49.886 1152.4 29.8833 1164.09 24.8827C1178.67 17.6595 1215.53 7.54698 1246.26 24.8827C1257.06 34.3284 1285.07 47.5524 1310.73 24.8827C1320.52 16.2148 1346.93 4.07985 1374.19 24.8827C1408.26 50.8862 1432.31 34.5506 1443 24.8827" stroke="black"/>
</svg>
