<svg width="63" height="72" viewBox="0 0 63 72" fill="none" xmlns="http://www.w3.org/2000/svg">
<path d="M54.4 62.6C48.6667 68.8667 41.0333 72 31.5 72C21.9667 72 14.3333 68.8667 8.6 62.6C2.86667 56.3333 7.45058e-08 47.4667 7.45058e-08 36C7.45058e-08 24.5333 2.86667 15.6667 8.6 9.39999C14.3333 3.13333 21.9667 -3.8147e-06 31.5 -3.8147e-06C41.0333 -3.8147e-06 48.6667 3.13333 54.4 9.39999C60.1333 15.6667 63 24.5333 63 36C63 47.4667 60.1333 56.3333 54.4 62.6ZM14.8 57.1C19 62.0333 24.5667 64.5 31.5 64.5C38.4333 64.5 44 62.0333 48.2 57.1C52.4 52.1 54.5 45.0667 54.5 36C54.5 26.9333 52.4 19.9333 48.2 15C44 10 38.4333 7.49999 31.5 7.49999C24.5667 7.49999 19 10 14.8 15C10.6 19.9333 8.5 26.9333 8.5 36C8.5 45.0667 10.6 52.1 14.8 57.1Z" fill="black"/>
</svg>
