<svg width="63" height="90" viewBox="0 0 63 90" fill="none" xmlns="http://www.w3.org/2000/svg">
<path d="M55.808 11.896C60.544 19.192 62.592 27.64 61.952 36.344C61.312 48.888 57.344 60.28 50.688 70.392C47.616 75 44.16 79.096 39.68 82.04C28.928 89.08 17.28 86.392 10.496 75C7.68 70.264 6.528 64.888 5.376 59.512C4.736 55.544 4.224 51.576 3.456 47.48C0.256 31.864 7.808 13.304 20.992 5.112C25.344 2.03999 30.464 0.759995 37.248 0.759995C44.288 0.759995 50.944 4.47199 55.808 11.896ZM52.608 38.136C53.248 30.584 52.096 23.544 48.512 17.4C45.568 12.152 41.472 9.464 35.968 9.464C30.848 9.464 26.112 11.128 22.528 15.608C20.48 18.296 18.304 21.368 16.512 24.312C14.976 27.128 13.44 29.816 14.72 33.4C14.976 34.296 14.592 35.448 14.208 36.472C14.208 39.8 13.952 43.128 13.824 46.072C13.952 49.4 13.952 52.088 14.208 54.904C14.976 60.408 15.744 65.912 18.304 70.776C22.528 78.2 28.288 79.608 35.072 74.744C36.992 73.208 38.912 71.416 40.704 69.24C47.488 60.28 51.456 49.784 52.608 38.136Z" fill="black"/>
</svg>
