<svg width="245" height="45" viewBox="0 0 245 45" fill="none" xmlns="http://www.w3.org/2000/svg">
<path d="M22.1587 1.61804L26.6581 15.4658L26.7704 15.8113H27.1336H41.694L29.9144 24.3697L29.6205 24.5832L29.7328 24.9287L34.2322 38.7765L22.4526 30.2181L22.1587 30.0045L21.8648 30.2181L10.0852 38.7765L14.5846 24.9287L14.6969 24.5832L14.403 24.3697L2.62337 15.8113H17.1838H17.547L17.6593 15.4658L22.1587 1.61804Z" fill="white" stroke="black"/>
<path d="M72.3294 1.61804L76.8288 15.4658L76.941 15.8113H77.3043H91.8647L80.0851 24.3697L79.7912 24.5832L79.9035 24.9287L84.4029 38.7765L72.6232 30.2181L72.3294 30.0045L72.0355 30.2181L60.2559 38.7765L64.7553 24.9287L64.8675 24.5832L64.5736 24.3697L52.794 15.8113H67.3544H67.7177L67.8299 15.4658L72.3294 1.61804Z" fill="white" stroke="black"/>
<path d="M122.5 1.61804L126.999 15.4658L127.112 15.8113H127.475H142.035L130.256 24.3697L129.962 24.5832L130.074 24.9287L134.574 38.7765L122.794 30.2181L122.5 30.0045L122.206 30.2181L110.427 38.7765L114.926 24.9287L115.038 24.5832L114.744 24.3697L102.965 15.8113H117.525H117.888L118.001 15.4658L122.5 1.61804Z" fill="white" stroke="black"/>
<path d="M172.671 1.61804L177.17 15.4658L177.282 15.8113H177.646H192.206L180.426 24.3697L180.133 24.5832L180.245 24.9287L184.744 38.7765L172.965 30.2181L172.671 30.0045L172.377 30.2181L160.597 38.7765L165.097 24.9287L165.209 24.5832L164.915 24.3697L153.135 15.8113H167.696H168.059L168.171 15.4658L172.671 1.61804Z" fill="white" stroke="black"/>
<path d="M222.841 1.61804L227.341 15.4658L227.453 15.8113H227.816H242.377L230.597 24.3697L230.303 24.5832L230.415 24.9287L234.915 38.7765L223.135 30.2181L222.841 30.0045L222.547 30.2181L210.768 38.7765L215.267 24.9287L215.379 24.5832L215.086 24.3697L203.306 15.8113H217.866H218.23L218.342 15.4658L222.841 1.61804Z" fill="white" stroke="black"/>
</svg>
